%TF.GenerationSoftware,KiCad,Pcbnew,(6.0.2-0)*%
%TF.CreationDate,2022-09-10T16:34:37-06:00*%
%TF.ProjectId,Sensor Data Logger,53656e73-6f72-4204-9461-7461204c6f67,rev?*%
%TF.SameCoordinates,Original*%
%TF.FileFunction,Legend,Bot*%
%TF.FilePolarity,Positive*%
%FSLAX46Y46*%
G04 Gerber Fmt 4.6, Leading zero omitted, Abs format (unit mm)*
G04 Created by KiCad (PCBNEW (6.0.2-0)) date 2022-09-10 16:34:37*
%MOMM*%
%LPD*%
G01*
G04 APERTURE LIST*
%ADD10C,0.150000*%
%ADD11C,0.300000*%
%ADD12C,0.125000*%
%ADD13C,0.120000*%
G04 APERTURE END LIST*
D10*
X189173809Y-87844380D02*
X189173809Y-88558666D01*
X189221428Y-88701523D01*
X189316666Y-88796761D01*
X189459523Y-88844380D01*
X189554761Y-88844380D01*
X188316666Y-88796761D02*
X188411904Y-88844380D01*
X188602380Y-88844380D01*
X188697619Y-88796761D01*
X188745238Y-88701523D01*
X188745238Y-88320571D01*
X188697619Y-88225333D01*
X188602380Y-88177714D01*
X188411904Y-88177714D01*
X188316666Y-88225333D01*
X188269047Y-88320571D01*
X188269047Y-88415809D01*
X188745238Y-88511047D01*
X187888095Y-88796761D02*
X187792857Y-88844380D01*
X187602380Y-88844380D01*
X187507142Y-88796761D01*
X187459523Y-88701523D01*
X187459523Y-88653904D01*
X187507142Y-88558666D01*
X187602380Y-88511047D01*
X187745238Y-88511047D01*
X187840476Y-88463428D01*
X187888095Y-88368190D01*
X187888095Y-88320571D01*
X187840476Y-88225333D01*
X187745238Y-88177714D01*
X187602380Y-88177714D01*
X187507142Y-88225333D01*
X186602380Y-88177714D02*
X186602380Y-88844380D01*
X187030952Y-88177714D02*
X187030952Y-88701523D01*
X186983333Y-88796761D01*
X186888095Y-88844380D01*
X186745238Y-88844380D01*
X186650000Y-88796761D01*
X186602380Y-88749142D01*
X186173809Y-88796761D02*
X186078571Y-88844380D01*
X185888095Y-88844380D01*
X185792857Y-88796761D01*
X185745238Y-88701523D01*
X185745238Y-88653904D01*
X185792857Y-88558666D01*
X185888095Y-88511047D01*
X186030952Y-88511047D01*
X186126190Y-88463428D01*
X186173809Y-88368190D01*
X186173809Y-88320571D01*
X186126190Y-88225333D01*
X186030952Y-88177714D01*
X185888095Y-88177714D01*
X185792857Y-88225333D01*
X184554761Y-88844380D02*
X184554761Y-87844380D01*
X184221428Y-88558666D01*
X183888095Y-87844380D01*
X183888095Y-88844380D01*
X183411904Y-88844380D02*
X183411904Y-88177714D01*
X183411904Y-87844380D02*
X183459523Y-87892000D01*
X183411904Y-87939619D01*
X183364285Y-87892000D01*
X183411904Y-87844380D01*
X183411904Y-87939619D01*
X182935714Y-88177714D02*
X182935714Y-88844380D01*
X182935714Y-88272952D02*
X182888095Y-88225333D01*
X182792857Y-88177714D01*
X182650000Y-88177714D01*
X182554761Y-88225333D01*
X182507142Y-88320571D01*
X182507142Y-88844380D01*
X182030952Y-88177714D02*
X182030952Y-89034857D01*
X182078571Y-89130095D01*
X182173809Y-89177714D01*
X182221428Y-89177714D01*
X182030952Y-87844380D02*
X182078571Y-87892000D01*
X182030952Y-87939619D01*
X181983333Y-87892000D01*
X182030952Y-87844380D01*
X182030952Y-87939619D01*
X181126190Y-88844380D02*
X181126190Y-88320571D01*
X181173809Y-88225333D01*
X181269047Y-88177714D01*
X181459523Y-88177714D01*
X181554761Y-88225333D01*
X181126190Y-88796761D02*
X181221428Y-88844380D01*
X181459523Y-88844380D01*
X181554761Y-88796761D01*
X181602380Y-88701523D01*
X181602380Y-88606285D01*
X181554761Y-88511047D01*
X181459523Y-88463428D01*
X181221428Y-88463428D01*
X181126190Y-88415809D01*
X180650000Y-88844380D02*
X180650000Y-88177714D01*
X180650000Y-88368190D02*
X180602380Y-88272952D01*
X180554761Y-88225333D01*
X180459523Y-88177714D01*
X180364285Y-88177714D01*
X179650000Y-88796761D02*
X179745238Y-88844380D01*
X179935714Y-88844380D01*
X180030952Y-88796761D01*
X180078571Y-88701523D01*
X180078571Y-88320571D01*
X180030952Y-88225333D01*
X179935714Y-88177714D01*
X179745238Y-88177714D01*
X179650000Y-88225333D01*
X179602380Y-88320571D01*
X179602380Y-88415809D01*
X180078571Y-88511047D01*
X179221428Y-88796761D02*
X179126190Y-88844380D01*
X178935714Y-88844380D01*
X178840476Y-88796761D01*
X178792857Y-88701523D01*
X178792857Y-88653904D01*
X178840476Y-88558666D01*
X178935714Y-88511047D01*
X179078571Y-88511047D01*
X179173809Y-88463428D01*
X179221428Y-88368190D01*
X179221428Y-88320571D01*
X179173809Y-88225333D01*
X179078571Y-88177714D01*
X178935714Y-88177714D01*
X178840476Y-88225333D01*
X189086666Y-93511714D02*
X189086666Y-94368857D01*
X189134285Y-94464095D01*
X189229523Y-94511714D01*
X189277142Y-94511714D01*
X189086666Y-93178380D02*
X189134285Y-93226000D01*
X189086666Y-93273619D01*
X189039047Y-93226000D01*
X189086666Y-93178380D01*
X189086666Y-93273619D01*
X188610476Y-94178380D02*
X188610476Y-93511714D01*
X188610476Y-93606952D02*
X188562857Y-93559333D01*
X188467619Y-93511714D01*
X188324761Y-93511714D01*
X188229523Y-93559333D01*
X188181904Y-93654571D01*
X188181904Y-94178380D01*
X188181904Y-93654571D02*
X188134285Y-93559333D01*
X188039047Y-93511714D01*
X187896190Y-93511714D01*
X187800952Y-93559333D01*
X187753333Y-93654571D01*
X187753333Y-94178380D01*
X187277142Y-94178380D02*
X187277142Y-93511714D01*
X187277142Y-93178380D02*
X187324761Y-93226000D01*
X187277142Y-93273619D01*
X187229523Y-93226000D01*
X187277142Y-93178380D01*
X187277142Y-93273619D01*
X186800952Y-93511714D02*
X186800952Y-94178380D01*
X186800952Y-93606952D02*
X186753333Y-93559333D01*
X186658095Y-93511714D01*
X186515238Y-93511714D01*
X186420000Y-93559333D01*
X186372380Y-93654571D01*
X186372380Y-94178380D01*
X185896190Y-93511714D02*
X185896190Y-94368857D01*
X185943809Y-94464095D01*
X186039047Y-94511714D01*
X186086666Y-94511714D01*
X185896190Y-93178380D02*
X185943809Y-93226000D01*
X185896190Y-93273619D01*
X185848571Y-93226000D01*
X185896190Y-93178380D01*
X185896190Y-93273619D01*
X184991428Y-94178380D02*
X184991428Y-93654571D01*
X185039047Y-93559333D01*
X185134285Y-93511714D01*
X185324761Y-93511714D01*
X185420000Y-93559333D01*
X184991428Y-94130761D02*
X185086666Y-94178380D01*
X185324761Y-94178380D01*
X185420000Y-94130761D01*
X185467619Y-94035523D01*
X185467619Y-93940285D01*
X185420000Y-93845047D01*
X185324761Y-93797428D01*
X185086666Y-93797428D01*
X184991428Y-93749809D01*
X184515238Y-94178380D02*
X184515238Y-93511714D01*
X184515238Y-93702190D02*
X184467619Y-93606952D01*
X184420000Y-93559333D01*
X184324761Y-93511714D01*
X184229523Y-93511714D01*
X183515238Y-94130761D02*
X183610476Y-94178380D01*
X183800952Y-94178380D01*
X183896190Y-94130761D01*
X183943809Y-94035523D01*
X183943809Y-93654571D01*
X183896190Y-93559333D01*
X183800952Y-93511714D01*
X183610476Y-93511714D01*
X183515238Y-93559333D01*
X183467619Y-93654571D01*
X183467619Y-93749809D01*
X183943809Y-93845047D01*
X183086666Y-94130761D02*
X182991428Y-94178380D01*
X182800952Y-94178380D01*
X182705714Y-94130761D01*
X182658095Y-94035523D01*
X182658095Y-93987904D01*
X182705714Y-93892666D01*
X182800952Y-93845047D01*
X182943809Y-93845047D01*
X183039047Y-93797428D01*
X183086666Y-93702190D01*
X183086666Y-93654571D01*
X183039047Y-93559333D01*
X182943809Y-93511714D01*
X182800952Y-93511714D01*
X182705714Y-93559333D01*
X181800952Y-93511714D02*
X181800952Y-94178380D01*
X182039047Y-93130761D02*
X182277142Y-93845047D01*
X181658095Y-93845047D01*
D11*
X124904571Y-64623142D02*
X126047428Y-64623142D01*
X125476000Y-65194571D02*
X125476000Y-64051714D01*
D10*
%TO.C,BT2*%
X157249714Y-76890571D02*
X157106857Y-76938190D01*
X157059238Y-76985809D01*
X157011619Y-77081047D01*
X157011619Y-77223904D01*
X157059238Y-77319142D01*
X157106857Y-77366761D01*
X157202095Y-77414380D01*
X157583047Y-77414380D01*
X157583047Y-76414380D01*
X157249714Y-76414380D01*
X157154476Y-76462000D01*
X157106857Y-76509619D01*
X157059238Y-76604857D01*
X157059238Y-76700095D01*
X157106857Y-76795333D01*
X157154476Y-76842952D01*
X157249714Y-76890571D01*
X157583047Y-76890571D01*
X156725904Y-76414380D02*
X156154476Y-76414380D01*
X156440190Y-77414380D02*
X156440190Y-76414380D01*
X155868761Y-76509619D02*
X155821142Y-76462000D01*
X155725904Y-76414380D01*
X155487809Y-76414380D01*
X155392571Y-76462000D01*
X155344952Y-76509619D01*
X155297333Y-76604857D01*
X155297333Y-76700095D01*
X155344952Y-76842952D01*
X155916380Y-77414380D01*
X155297333Y-77414380D01*
D12*
%TO.C,G\u002A\u002A\u002A*%
X194496476Y-91444000D02*
X194544095Y-91420190D01*
X194615523Y-91420190D01*
X194686952Y-91444000D01*
X194734571Y-91491619D01*
X194758380Y-91539238D01*
X194782190Y-91634476D01*
X194782190Y-91705904D01*
X194758380Y-91801142D01*
X194734571Y-91848761D01*
X194686952Y-91896380D01*
X194615523Y-91920190D01*
X194567904Y-91920190D01*
X194496476Y-91896380D01*
X194472666Y-91872571D01*
X194472666Y-91705904D01*
X194567904Y-91705904D01*
X194186952Y-91420190D02*
X194186952Y-91539238D01*
X194306000Y-91491619D02*
X194186952Y-91539238D01*
X194067904Y-91491619D01*
X194258380Y-91634476D02*
X194186952Y-91539238D01*
X194115523Y-91634476D01*
X193806000Y-91420190D02*
X193806000Y-91539238D01*
X193925047Y-91491619D02*
X193806000Y-91539238D01*
X193686952Y-91491619D01*
X193877428Y-91634476D02*
X193806000Y-91539238D01*
X193734571Y-91634476D01*
X193425047Y-91420190D02*
X193425047Y-91539238D01*
X193544095Y-91491619D02*
X193425047Y-91539238D01*
X193306000Y-91491619D01*
X193496476Y-91634476D02*
X193425047Y-91539238D01*
X193353619Y-91634476D01*
X194314000Y-88713523D02*
X194290190Y-88665904D01*
X194290190Y-88594476D01*
X194314000Y-88523047D01*
X194361619Y-88475428D01*
X194409238Y-88451619D01*
X194504476Y-88427809D01*
X194575904Y-88427809D01*
X194671142Y-88451619D01*
X194718761Y-88475428D01*
X194766380Y-88523047D01*
X194790190Y-88594476D01*
X194790190Y-88642095D01*
X194766380Y-88713523D01*
X194742571Y-88737333D01*
X194575904Y-88737333D01*
X194575904Y-88642095D01*
X194290190Y-89023047D02*
X194409238Y-89023047D01*
X194361619Y-88904000D02*
X194409238Y-89023047D01*
X194361619Y-89142095D01*
X194504476Y-88951619D02*
X194409238Y-89023047D01*
X194504476Y-89094476D01*
X194290190Y-89404000D02*
X194409238Y-89404000D01*
X194361619Y-89284952D02*
X194409238Y-89404000D01*
X194361619Y-89523047D01*
X194504476Y-89332571D02*
X194409238Y-89404000D01*
X194504476Y-89475428D01*
X194290190Y-89784952D02*
X194409238Y-89784952D01*
X194361619Y-89665904D02*
X194409238Y-89784952D01*
X194361619Y-89904000D01*
X194504476Y-89713523D02*
X194409238Y-89784952D01*
X194504476Y-89856380D01*
D13*
%TO.C,BT2*%
X199782000Y-58276000D02*
X121782000Y-58276000D01*
X121782000Y-78376000D02*
X199782000Y-78376000D01*
X199782000Y-78376000D02*
X199782000Y-58276000D01*
X121782000Y-58276000D02*
X121782000Y-78376000D01*
%TO.C,G\u002A\u002A\u002A*%
G36*
X189992000Y-96266000D02*
G01*
X189992000Y-93645648D01*
X190523329Y-93645648D01*
X190526046Y-93812318D01*
X190537496Y-93978377D01*
X190556996Y-94130095D01*
X190583866Y-94253742D01*
X190606986Y-94328444D01*
X190717229Y-94597113D01*
X190862678Y-94846410D01*
X191040155Y-95072674D01*
X191246480Y-95272245D01*
X191478474Y-95441465D01*
X191732959Y-95576672D01*
X191854667Y-95630466D01*
X191854667Y-95314027D01*
X191854668Y-95310251D01*
X191857670Y-95147025D01*
X191867913Y-95017472D01*
X191887568Y-94913399D01*
X191918805Y-94826614D01*
X191963794Y-94748925D01*
X192024706Y-94672138D01*
X192062383Y-94628276D01*
X192095797Y-94586725D01*
X192108667Y-94566853D01*
X192102860Y-94562750D01*
X192066603Y-94553049D01*
X192008125Y-94543178D01*
X191992327Y-94540867D01*
X191839282Y-94504890D01*
X191686300Y-94447076D01*
X191543948Y-94372850D01*
X191422794Y-94287635D01*
X191333405Y-94196856D01*
X191258039Y-94075527D01*
X191198345Y-93912159D01*
X191174679Y-93739301D01*
X191187134Y-93564118D01*
X191235805Y-93393775D01*
X191320785Y-93235436D01*
X191342366Y-93203184D01*
X191368894Y-93153315D01*
X191375574Y-93110546D01*
X191366911Y-93057511D01*
X191359430Y-93016434D01*
X191350836Y-92927243D01*
X191347843Y-92827257D01*
X191350326Y-92729681D01*
X191358164Y-92647720D01*
X191371231Y-92594579D01*
X191372992Y-92590786D01*
X191395079Y-92558676D01*
X191430228Y-92544171D01*
X191492940Y-92540873D01*
X191580610Y-92552586D01*
X191692009Y-92589678D01*
X191800021Y-92645174D01*
X191888052Y-92711892D01*
X191953186Y-92774714D01*
X192089135Y-92742670D01*
X192115719Y-92736992D01*
X192241909Y-92720146D01*
X192389737Y-92712291D01*
X192543451Y-92713427D01*
X192687300Y-92723553D01*
X192805533Y-92742670D01*
X192941482Y-92774714D01*
X193006616Y-92711892D01*
X193082720Y-92652717D01*
X193189214Y-92595497D01*
X193301082Y-92555822D01*
X193401728Y-92540873D01*
X193408571Y-92540877D01*
X193468341Y-92544887D01*
X193501797Y-92560656D01*
X193523436Y-92594579D01*
X193531523Y-92620527D01*
X193541655Y-92691832D01*
X193546430Y-92784490D01*
X193545735Y-92885318D01*
X193539456Y-92981134D01*
X193527476Y-93058755D01*
X193518230Y-93115493D01*
X193527271Y-93160819D01*
X193561077Y-93212566D01*
X193628760Y-93318238D01*
X193692570Y-93477999D01*
X193721501Y-93646248D01*
X193715983Y-93815915D01*
X193676447Y-93979933D01*
X193603324Y-94131232D01*
X193497045Y-94262746D01*
X193461135Y-94295110D01*
X193380317Y-94357616D01*
X193302675Y-94407152D01*
X193270592Y-94423168D01*
X193185119Y-94458508D01*
X193085506Y-94493083D01*
X192984977Y-94522822D01*
X192896751Y-94543651D01*
X192834051Y-94551500D01*
X192828241Y-94551537D01*
X192796888Y-94555720D01*
X192790859Y-94571209D01*
X192811678Y-94604225D01*
X192860871Y-94660991D01*
X192884583Y-94688759D01*
X192934531Y-94756110D01*
X192969829Y-94815347D01*
X192976110Y-94828317D01*
X192996372Y-94861528D01*
X193023083Y-94879956D01*
X193068198Y-94889017D01*
X193143667Y-94894127D01*
X193168709Y-94895353D01*
X193280511Y-94896945D01*
X193363642Y-94887447D01*
X193429173Y-94863072D01*
X193488173Y-94820032D01*
X193551715Y-94754540D01*
X193595935Y-94707000D01*
X193682223Y-94629985D01*
X193759302Y-94586400D01*
X193832699Y-94572666D01*
X193868108Y-94579641D01*
X193886073Y-94607846D01*
X193871161Y-94652929D01*
X193823711Y-94709729D01*
X193818396Y-94715138D01*
X193778404Y-94769061D01*
X193734224Y-94845815D01*
X193694484Y-94930647D01*
X193654235Y-95021899D01*
X193598583Y-95119384D01*
X193536842Y-95185173D01*
X193460660Y-95225030D01*
X193361681Y-95244718D01*
X193231552Y-95250000D01*
X193040000Y-95250000D01*
X193040000Y-95461666D01*
X193040926Y-95545117D01*
X193045197Y-95619439D01*
X193053503Y-95660202D01*
X193066459Y-95672298D01*
X193094320Y-95665897D01*
X193150772Y-95647644D01*
X193221197Y-95621859D01*
X193365740Y-95560196D01*
X193622885Y-95417228D01*
X193854086Y-95243035D01*
X194056870Y-95040262D01*
X194228760Y-94811554D01*
X194367283Y-94559557D01*
X194469964Y-94286916D01*
X194480619Y-94249973D01*
X194503901Y-94154659D01*
X194519866Y-94057820D01*
X194530417Y-93945863D01*
X194537460Y-93805197D01*
X194539184Y-93621320D01*
X194523933Y-93410282D01*
X194486686Y-93215728D01*
X194424889Y-93025243D01*
X194335985Y-92826416D01*
X194265442Y-92694069D01*
X194191930Y-92578788D01*
X194106134Y-92468215D01*
X193997340Y-92347192D01*
X193847321Y-92201986D01*
X193617415Y-92026354D01*
X193370630Y-91889526D01*
X193107267Y-91791632D01*
X192827624Y-91732800D01*
X192532000Y-91713161D01*
X192435826Y-91715089D01*
X192147209Y-91746177D01*
X191876085Y-91815660D01*
X191621087Y-91924080D01*
X191380846Y-92071981D01*
X191153993Y-92259906D01*
X191032976Y-92383663D01*
X190854571Y-92611471D01*
X190711878Y-92858481D01*
X190606814Y-93121137D01*
X190541296Y-93395885D01*
X190530024Y-93492098D01*
X190523329Y-93645648D01*
X189992000Y-93645648D01*
X189992000Y-91186000D01*
X195072000Y-91186000D01*
X195072000Y-96266000D01*
X189992000Y-96266000D01*
G37*
G36*
X193987313Y-87574280D02*
G01*
X194006321Y-87580131D01*
X194013624Y-87597718D01*
X194014470Y-87614475D01*
X194011142Y-87636499D01*
X194001604Y-87645829D01*
X193980653Y-87648522D01*
X193957445Y-87642048D01*
X193940237Y-87627460D01*
X193936599Y-87620097D01*
X193936957Y-87597689D01*
X193952922Y-87580796D01*
X193980908Y-87574120D01*
X193987313Y-87574280D01*
G37*
G36*
X193570539Y-86304269D02*
G01*
X193589691Y-86310066D01*
X193597040Y-86327539D01*
X193596554Y-86344318D01*
X193587769Y-86366129D01*
X193568046Y-86377438D01*
X193543605Y-86374457D01*
X193523690Y-86357460D01*
X193520042Y-86350085D01*
X193520398Y-86327683D01*
X193536361Y-86310794D01*
X193564348Y-86304120D01*
X193570539Y-86304269D01*
G37*
G36*
X194185902Y-86911117D02*
G01*
X194205291Y-86924856D01*
X194214999Y-86940056D01*
X194216307Y-86956348D01*
X194202054Y-86974494D01*
X194181271Y-86986294D01*
X194154576Y-86984644D01*
X194133290Y-86967060D01*
X194130180Y-86960954D01*
X194129742Y-86939277D01*
X194142580Y-86921578D01*
X194163149Y-86911108D01*
X194185902Y-86911117D01*
G37*
G36*
X193252622Y-89738399D02*
G01*
X193267706Y-89757160D01*
X193272048Y-89780308D01*
X193261488Y-89802208D01*
X193254374Y-89807621D01*
X193233040Y-89814400D01*
X193221581Y-89812550D01*
X193202487Y-89798205D01*
X193193089Y-89775569D01*
X193195329Y-89751775D01*
X193211150Y-89733960D01*
X193230955Y-89729665D01*
X193252622Y-89738399D01*
G37*
G36*
X191106981Y-87574726D02*
G01*
X191125101Y-87591943D01*
X191129672Y-87615017D01*
X191117728Y-87638128D01*
X191116592Y-87639215D01*
X191093049Y-87649565D01*
X191067235Y-87646121D01*
X191048640Y-87630000D01*
X191045993Y-87624055D01*
X191045057Y-87598140D01*
X191058527Y-87577477D01*
X191082526Y-87569040D01*
X191106981Y-87574726D01*
G37*
G36*
X191848042Y-89739001D02*
G01*
X191863865Y-89745460D01*
X191869840Y-89761619D01*
X191869426Y-89778350D01*
X191860976Y-89799719D01*
X191852460Y-89807072D01*
X191830960Y-89814400D01*
X191812605Y-89809340D01*
X191795804Y-89789893D01*
X191792081Y-89761619D01*
X191794882Y-89750444D01*
X191806080Y-89740626D01*
X191830960Y-89738200D01*
X191848042Y-89739001D01*
G37*
G36*
X191231048Y-88796011D02*
G01*
X191247735Y-88812330D01*
X191251627Y-88834662D01*
X191239212Y-88857764D01*
X191225544Y-88865046D01*
X191201112Y-88867416D01*
X191192026Y-88865761D01*
X191178102Y-88855614D01*
X191172483Y-88831768D01*
X191171750Y-88815808D01*
X191177407Y-88800337D01*
X191195475Y-88792534D01*
X191205082Y-88790944D01*
X191231048Y-88796011D01*
G37*
G36*
X190893550Y-87203916D02*
G01*
X190912009Y-87214799D01*
X190929259Y-87232862D01*
X190936880Y-87249848D01*
X190933844Y-87260454D01*
X190920915Y-87278754D01*
X190909010Y-87288058D01*
X190891160Y-87294720D01*
X190890364Y-87294699D01*
X190871299Y-87286569D01*
X190853378Y-87269430D01*
X190845440Y-87251614D01*
X190846386Y-87246490D01*
X190857234Y-87228119D01*
X190874133Y-87210898D01*
X190889395Y-87203280D01*
X190893550Y-87203916D01*
G37*
G36*
X192267280Y-87721440D02*
G01*
X192267565Y-87722363D01*
X192274491Y-87745625D01*
X192284705Y-87780747D01*
X192296104Y-87820500D01*
X192317075Y-87894160D01*
X192257680Y-87894160D01*
X192258554Y-87795100D01*
X192259011Y-87767951D01*
X192260731Y-87733647D01*
X192263523Y-87717843D01*
X192267280Y-87721440D01*
G37*
G36*
X191341648Y-89902455D02*
G01*
X191358886Y-89919289D01*
X191363262Y-89941922D01*
X191351408Y-89964768D01*
X191344280Y-89970141D01*
X191322173Y-89976960D01*
X191321182Y-89976947D01*
X191299508Y-89968837D01*
X191286692Y-89950227D01*
X191283676Y-89927720D01*
X191291405Y-89907923D01*
X191310820Y-89897440D01*
X191314915Y-89897007D01*
X191341648Y-89902455D01*
G37*
G36*
X191272051Y-89260548D02*
G01*
X191277082Y-89269346D01*
X191279258Y-89293524D01*
X191270904Y-89316556D01*
X191254374Y-89329279D01*
X191231473Y-89329194D01*
X191209703Y-89316141D01*
X191201040Y-89292834D01*
X191201051Y-89291682D01*
X191208866Y-89264635D01*
X191227210Y-89248654D01*
X191250225Y-89246404D01*
X191272051Y-89260548D01*
G37*
G36*
X192856188Y-86813260D02*
G01*
X192866199Y-86836203D01*
X192863379Y-86863513D01*
X192854324Y-86872746D01*
X192833283Y-86878160D01*
X192825520Y-86877658D01*
X192800873Y-86866959D01*
X192788562Y-86846914D01*
X192790565Y-86823601D01*
X192808860Y-86803100D01*
X192815188Y-86799891D01*
X192837724Y-86799538D01*
X192856188Y-86813260D01*
G37*
G36*
X193870616Y-88793877D02*
G01*
X193886228Y-88809990D01*
X193891757Y-88832104D01*
X193882875Y-88854768D01*
X193874275Y-88862192D01*
X193852800Y-88869520D01*
X193847157Y-88869161D01*
X193825416Y-88858486D01*
X193815078Y-88837968D01*
X193817746Y-88814372D01*
X193835020Y-88794460D01*
X193849246Y-88789217D01*
X193870616Y-88793877D01*
G37*
G36*
X191518451Y-86302562D02*
G01*
X191538281Y-86316540D01*
X191546480Y-86339680D01*
X191545205Y-86348174D01*
X191534288Y-86368128D01*
X191522913Y-86376105D01*
X191496558Y-86378739D01*
X191471006Y-86364354D01*
X191458907Y-86350932D01*
X191456551Y-86338302D01*
X191465558Y-86318692D01*
X191472521Y-86309513D01*
X191494146Y-86299601D01*
X191518451Y-86302562D01*
G37*
G36*
X190892596Y-86908654D02*
G01*
X190919873Y-86916766D01*
X190932753Y-86936897D01*
X190928432Y-86964820D01*
X190916409Y-86981573D01*
X190891160Y-86989920D01*
X190873882Y-86985896D01*
X190855383Y-86969322D01*
X190847919Y-86946387D01*
X190855351Y-86924180D01*
X190867087Y-86915178D01*
X190891160Y-86908640D01*
X190892596Y-86908654D01*
G37*
G36*
X191566800Y-88122760D02*
G01*
X191569248Y-88126510D01*
X191581874Y-88148042D01*
X191587054Y-88160860D01*
X191583293Y-88165283D01*
X191566800Y-88168480D01*
X191556195Y-88166770D01*
X191548452Y-88155934D01*
X191546547Y-88130380D01*
X191546614Y-88092280D01*
X191566800Y-88122760D01*
G37*
G36*
X194170286Y-87205067D02*
G01*
X194187553Y-87213157D01*
X194205543Y-87227847D01*
X194213180Y-87251487D01*
X194201991Y-87275869D01*
X194188267Y-87287790D01*
X194171992Y-87294720D01*
X194152905Y-87286835D01*
X194135007Y-87268660D01*
X194127120Y-87249000D01*
X194127631Y-87245396D01*
X194136564Y-87227959D01*
X194151121Y-87210940D01*
X194164074Y-87203280D01*
X194170286Y-87205067D01*
G37*
G36*
X189992000Y-90678000D02*
G01*
X189992000Y-86951699D01*
X190806369Y-86951699D01*
X190819665Y-86989193D01*
X190833385Y-87010001D01*
X190857893Y-87026031D01*
X190894531Y-87030236D01*
X190901384Y-87029892D01*
X190937263Y-87017102D01*
X190964012Y-86986324D01*
X190969164Y-86979470D01*
X190978596Y-86974171D01*
X190995181Y-86970833D01*
X191022209Y-86969090D01*
X191062970Y-86968577D01*
X191120755Y-86968929D01*
X191267080Y-86970369D01*
X191391540Y-87094292D01*
X191425013Y-87127895D01*
X191461308Y-87165047D01*
X191490132Y-87195373D01*
X191509143Y-87216402D01*
X191516000Y-87225663D01*
X191506895Y-87227683D01*
X191480042Y-87229763D01*
X191438079Y-87231734D01*
X191383655Y-87233495D01*
X191319419Y-87234942D01*
X191248019Y-87235976D01*
X190980038Y-87238840D01*
X190963959Y-87210808D01*
X190957171Y-87200538D01*
X190927457Y-87175585D01*
X190891968Y-87167038D01*
X190856028Y-87175285D01*
X190824960Y-87200711D01*
X190821714Y-87205092D01*
X190807506Y-87240247D01*
X190810353Y-87275254D01*
X190827882Y-87305711D01*
X190857722Y-87327213D01*
X190897500Y-87335360D01*
X190903103Y-87334514D01*
X190925358Y-87323593D01*
X190949391Y-87304092D01*
X190980658Y-87272825D01*
X191311829Y-87273902D01*
X191643000Y-87274978D01*
X192034160Y-87665364D01*
X192034160Y-87894160D01*
X191790592Y-87894160D01*
X191547024Y-87894159D01*
X191544212Y-87744300D01*
X191541400Y-87594440D01*
X191355974Y-87594440D01*
X191299139Y-87594049D01*
X191247657Y-87592907D01*
X191206943Y-87591152D01*
X191180181Y-87588923D01*
X191170554Y-87586358D01*
X191170553Y-87586197D01*
X191161852Y-87568316D01*
X191140744Y-87549431D01*
X191114172Y-87534480D01*
X191089074Y-87528400D01*
X191058685Y-87531525D01*
X191028430Y-87547359D01*
X191008161Y-87578811D01*
X191005664Y-87585146D01*
X191000516Y-87612145D01*
X191008161Y-87640548D01*
X191022003Y-87664980D01*
X191049101Y-87684879D01*
X191089074Y-87690960D01*
X191089325Y-87690959D01*
X191114473Y-87684752D01*
X191141018Y-87669733D01*
X191162022Y-87650838D01*
X191170547Y-87633001D01*
X191175612Y-87631123D01*
X191197771Y-87629089D01*
X191234484Y-87627812D01*
X191282405Y-87627393D01*
X191338187Y-87627933D01*
X191505840Y-87630947D01*
X191505840Y-87894160D01*
X191480122Y-87894160D01*
X191460654Y-87897430D01*
X191449838Y-87911395D01*
X191454425Y-87937103D01*
X191474356Y-87975376D01*
X191484851Y-87993008D01*
X191496217Y-88016591D01*
X191502534Y-88040797D01*
X191505256Y-88072188D01*
X191505840Y-88117325D01*
X191505840Y-88208105D01*
X191563935Y-88211152D01*
X191622030Y-88214200D01*
X191712074Y-88358418D01*
X191736425Y-88397898D01*
X191765591Y-88447432D01*
X191784276Y-88482961D01*
X191793275Y-88506047D01*
X191793381Y-88518250D01*
X191793328Y-88518342D01*
X191783438Y-88530460D01*
X191761617Y-88554349D01*
X191730273Y-88587466D01*
X191691812Y-88627268D01*
X191648641Y-88671212D01*
X191512639Y-88808560D01*
X191406636Y-88808560D01*
X191379903Y-88808526D01*
X191341004Y-88807865D01*
X191315411Y-88805540D01*
X191298493Y-88800500D01*
X191285620Y-88791697D01*
X191272161Y-88778080D01*
X191253993Y-88762422D01*
X191218716Y-88747905D01*
X191183595Y-88750479D01*
X191153525Y-88770460D01*
X191134119Y-88796216D01*
X191125201Y-88825770D01*
X191131418Y-88859288D01*
X191147154Y-88887829D01*
X191174174Y-88904958D01*
X191215308Y-88910160D01*
X191225659Y-88909792D01*
X191251918Y-88901883D01*
X191273767Y-88879680D01*
X191296302Y-88849200D01*
X191531545Y-88849200D01*
X191658240Y-88722200D01*
X191694297Y-88686374D01*
X191731698Y-88649958D01*
X191762201Y-88621080D01*
X191783355Y-88602056D01*
X191792708Y-88595200D01*
X191793978Y-88599702D01*
X191795736Y-88621838D01*
X191797298Y-88660329D01*
X191798608Y-88712806D01*
X191799612Y-88776902D01*
X191800254Y-88850249D01*
X191800480Y-88930480D01*
X191800480Y-89265760D01*
X191331113Y-89265760D01*
X191302641Y-89235280D01*
X191297236Y-89229836D01*
X191262347Y-89208445D01*
X191225228Y-89206720D01*
X191188399Y-89224891D01*
X191169574Y-89245911D01*
X191158023Y-89279863D01*
X191161598Y-89314956D01*
X191179397Y-89345448D01*
X191210516Y-89365599D01*
X191240855Y-89371279D01*
X191277672Y-89361827D01*
X191310388Y-89332558D01*
X191313166Y-89329061D01*
X191321958Y-89319622D01*
X191332751Y-89313253D01*
X191349208Y-89309349D01*
X191374993Y-89307308D01*
X191413770Y-89306526D01*
X191469203Y-89306400D01*
X191607440Y-89306400D01*
X191607440Y-89626771D01*
X191490912Y-89742969D01*
X191452022Y-89781629D01*
X191418780Y-89813868D01*
X191394550Y-89835514D01*
X191376489Y-89848583D01*
X191361755Y-89855093D01*
X191347504Y-89857060D01*
X191330892Y-89856502D01*
X191308202Y-89856842D01*
X191271744Y-89868676D01*
X191249321Y-89894930D01*
X191241680Y-89934944D01*
X191242327Y-89946290D01*
X191254774Y-89982105D01*
X191279484Y-90006514D01*
X191311744Y-90017577D01*
X191346839Y-90013354D01*
X191380058Y-89991906D01*
X191389284Y-89981787D01*
X191401493Y-89957865D01*
X191402823Y-89925650D01*
X191402822Y-89925635D01*
X191402292Y-89910419D01*
X191404450Y-89896858D01*
X191411250Y-89882289D01*
X191424649Y-89864050D01*
X191446601Y-89839480D01*
X191479062Y-89805916D01*
X191523988Y-89760698D01*
X191648080Y-89636306D01*
X191648080Y-89306400D01*
X191739520Y-89306400D01*
X191759650Y-89306337D01*
X191796676Y-89305849D01*
X191822746Y-89304981D01*
X191833178Y-89303860D01*
X191833800Y-89294329D01*
X191834672Y-89266664D01*
X191835726Y-89223163D01*
X191836913Y-89166117D01*
X191838186Y-89097817D01*
X191839497Y-89020554D01*
X191840798Y-88936619D01*
X191846200Y-88571919D01*
X192026540Y-88861618D01*
X192206880Y-89151316D01*
X192206880Y-89342177D01*
X192030213Y-89518628D01*
X191992876Y-89555542D01*
X191946858Y-89599933D01*
X191906808Y-89637312D01*
X191874790Y-89665804D01*
X191852868Y-89683534D01*
X191843106Y-89688627D01*
X191832499Y-89686472D01*
X191808573Y-89691699D01*
X191782795Y-89704277D01*
X191763532Y-89720819D01*
X191758764Y-89728205D01*
X191749942Y-89762209D01*
X191755508Y-89798943D01*
X191774619Y-89830101D01*
X191777596Y-89832953D01*
X191811589Y-89851910D01*
X191849203Y-89851959D01*
X191886715Y-89833003D01*
X191897209Y-89824237D01*
X191908248Y-89809787D01*
X191911518Y-89790331D01*
X191909297Y-89758340D01*
X191903866Y-89705712D01*
X192247520Y-89362504D01*
X192247859Y-89296352D01*
X192247934Y-89284112D01*
X192248664Y-89254459D01*
X192251050Y-89241149D01*
X192256304Y-89241104D01*
X192265639Y-89251251D01*
X192268004Y-89254488D01*
X192280760Y-89273730D01*
X192302694Y-89307860D01*
X192332744Y-89355190D01*
X192369848Y-89414033D01*
X192412944Y-89482704D01*
X192460969Y-89559513D01*
X192512862Y-89642775D01*
X192567560Y-89730803D01*
X192592212Y-89770476D01*
X192645474Y-89855783D01*
X192695338Y-89935101D01*
X192740768Y-90006813D01*
X192780727Y-90069303D01*
X192814180Y-90120955D01*
X192840088Y-90160152D01*
X192857415Y-90185280D01*
X192865125Y-90194720D01*
X192872353Y-90195409D01*
X192884011Y-90185020D01*
X192883998Y-90184183D01*
X192880485Y-90169046D01*
X192871698Y-90136544D01*
X192858142Y-90088373D01*
X192840325Y-90026233D01*
X192818753Y-89951822D01*
X192793933Y-89866840D01*
X192766370Y-89772984D01*
X192736572Y-89671955D01*
X192705045Y-89565449D01*
X192672296Y-89455167D01*
X192638830Y-89342806D01*
X192605155Y-89230065D01*
X192571778Y-89118644D01*
X192539203Y-89010241D01*
X192507939Y-88906554D01*
X192478491Y-88809282D01*
X192451367Y-88720124D01*
X192427072Y-88640779D01*
X192406113Y-88572945D01*
X192388996Y-88518322D01*
X192376229Y-88478607D01*
X192368317Y-88455500D01*
X192359783Y-88432640D01*
X192806320Y-88432640D01*
X192806320Y-89352337D01*
X192984461Y-89530028D01*
X193019655Y-89565210D01*
X193067305Y-89613332D01*
X193102920Y-89650288D01*
X193128079Y-89677951D01*
X193144362Y-89698193D01*
X193153348Y-89712886D01*
X193156617Y-89723904D01*
X193155747Y-89733120D01*
X193150517Y-89761634D01*
X193155373Y-89801229D01*
X193177612Y-89832180D01*
X193182851Y-89836474D01*
X193218867Y-89853040D01*
X193255937Y-89850886D01*
X193289382Y-89830101D01*
X193295488Y-89823349D01*
X193311968Y-89789788D01*
X193312061Y-89754558D01*
X193297727Y-89722634D01*
X193270926Y-89698990D01*
X193233618Y-89688598D01*
X193222121Y-89686212D01*
X193207269Y-89678746D01*
X193187685Y-89664622D01*
X193161502Y-89642238D01*
X193126852Y-89609993D01*
X193081869Y-89566289D01*
X193024684Y-89509523D01*
X192846960Y-89332017D01*
X192846960Y-88432640D01*
X192986660Y-88432644D01*
X193126360Y-88432649D01*
X193217800Y-88538809D01*
X193222880Y-88920064D01*
X193227960Y-89301320D01*
X193410840Y-89311480D01*
X193416392Y-89647548D01*
X193538076Y-89768915D01*
X193572551Y-89803420D01*
X193607693Y-89839365D01*
X193631875Y-89865854D01*
X193647133Y-89885617D01*
X193655507Y-89901384D01*
X193659037Y-89915885D01*
X193659760Y-89931850D01*
X193660810Y-89948038D01*
X193674412Y-89985387D01*
X193702255Y-90009222D01*
X193742464Y-90017600D01*
X193754878Y-90016770D01*
X193790227Y-90002917D01*
X193813768Y-89974529D01*
X193822320Y-89934896D01*
X193820257Y-89914439D01*
X193804085Y-89881239D01*
X193773780Y-89861211D01*
X193731660Y-89856364D01*
X193718186Y-89857022D01*
X193704043Y-89855590D01*
X193689645Y-89849819D01*
X193672177Y-89837695D01*
X193648824Y-89817205D01*
X193616769Y-89786337D01*
X193573198Y-89743077D01*
X193456560Y-89626771D01*
X193456560Y-89306400D01*
X193598116Y-89306400D01*
X193606880Y-89306401D01*
X193660615Y-89306621D01*
X193697771Y-89307540D01*
X193721637Y-89309631D01*
X193735505Y-89313364D01*
X193742667Y-89319213D01*
X193746415Y-89327647D01*
X193757467Y-89345103D01*
X193784261Y-89362329D01*
X193818220Y-89370188D01*
X193852147Y-89366065D01*
X193868592Y-89358197D01*
X193893740Y-89332410D01*
X193904501Y-89298806D01*
X193899825Y-89262782D01*
X193878662Y-89229738D01*
X193866022Y-89218969D01*
X193831266Y-89205019D01*
X193795388Y-89210503D01*
X193761360Y-89235280D01*
X193732888Y-89265760D01*
X193263520Y-89265760D01*
X193263520Y-88580242D01*
X193398277Y-88714721D01*
X193533033Y-88849200D01*
X193762672Y-88849200D01*
X193788320Y-88879680D01*
X193805236Y-88895540D01*
X193839006Y-88910199D01*
X193873505Y-88909026D01*
X193904005Y-88893714D01*
X193925773Y-88865959D01*
X193934080Y-88827456D01*
X193931201Y-88804956D01*
X193914476Y-88773653D01*
X193887006Y-88753682D01*
X193853610Y-88746674D01*
X193819109Y-88754262D01*
X193788320Y-88778080D01*
X193762672Y-88808560D01*
X193652796Y-88807700D01*
X193542920Y-88806841D01*
X193361200Y-88619740D01*
X193179479Y-88432640D01*
X193383229Y-88432640D01*
X193404649Y-88432628D01*
X193475638Y-88432291D01*
X193529263Y-88431311D01*
X193567873Y-88429445D01*
X193593816Y-88426451D01*
X193609439Y-88422085D01*
X193617092Y-88416105D01*
X193619120Y-88408268D01*
X193615698Y-88399989D01*
X193602017Y-88377910D01*
X193580309Y-88346718D01*
X193553186Y-88310295D01*
X193531983Y-88282261D01*
X193508830Y-88250528D01*
X193493022Y-88227465D01*
X193487146Y-88216740D01*
X193487439Y-88215741D01*
X193499121Y-88211034D01*
X193522600Y-88209120D01*
X193558160Y-88209120D01*
X193558160Y-87630503D01*
X193723260Y-87627711D01*
X193888360Y-87624920D01*
X193909009Y-87655400D01*
X193930369Y-87677150D01*
X193963575Y-87690896D01*
X193998612Y-87689914D01*
X194029815Y-87674604D01*
X194051523Y-87645364D01*
X194057512Y-87625835D01*
X194056817Y-87589042D01*
X194041981Y-87558579D01*
X194016863Y-87537112D01*
X193985319Y-87527305D01*
X193951205Y-87531825D01*
X193918379Y-87553338D01*
X193915965Y-87555790D01*
X193899982Y-87574377D01*
X193893447Y-87586358D01*
X193884486Y-87588835D01*
X193858288Y-87591079D01*
X193818023Y-87592853D01*
X193766875Y-87594020D01*
X193708027Y-87594440D01*
X193522600Y-87594440D01*
X193517204Y-88168480D01*
X193479262Y-88168040D01*
X193475905Y-88167985D01*
X193465139Y-88167087D01*
X193454725Y-88163782D01*
X193443077Y-88156353D01*
X193428609Y-88143083D01*
X193409734Y-88122254D01*
X193384867Y-88092149D01*
X193352419Y-88051052D01*
X193310806Y-87997244D01*
X193258440Y-87929008D01*
X193245934Y-87912686D01*
X193199670Y-87852233D01*
X193157342Y-87796799D01*
X193120637Y-87748604D01*
X193091243Y-87709868D01*
X193070849Y-87682809D01*
X193061143Y-87669648D01*
X193059751Y-87667517D01*
X193057046Y-87660315D01*
X193058343Y-87651415D01*
X193065136Y-87639018D01*
X193078916Y-87621326D01*
X193101176Y-87596541D01*
X193133409Y-87562863D01*
X193177106Y-87518495D01*
X193233760Y-87461639D01*
X193420795Y-87274400D01*
X193742878Y-87274400D01*
X193746594Y-87274399D01*
X193847134Y-87274094D01*
X193928139Y-87273198D01*
X193990364Y-87271686D01*
X194034561Y-87269533D01*
X194061483Y-87266712D01*
X194071884Y-87263199D01*
X194072549Y-87262289D01*
X194081511Y-87263955D01*
X194093418Y-87282168D01*
X194093420Y-87282171D01*
X194118824Y-87315285D01*
X194152251Y-87331839D01*
X194189183Y-87330836D01*
X194225106Y-87311276D01*
X194226009Y-87310494D01*
X194247118Y-87284067D01*
X194253105Y-87250821D01*
X194253074Y-87248309D01*
X194244036Y-87210466D01*
X194222126Y-87183617D01*
X194192057Y-87168994D01*
X194158543Y-87167830D01*
X194126301Y-87181357D01*
X194100042Y-87210808D01*
X194083963Y-87238840D01*
X193815982Y-87235976D01*
X193746821Y-87234983D01*
X193682308Y-87233548D01*
X193627521Y-87231796D01*
X193585109Y-87229830D01*
X193557719Y-87227752D01*
X193548000Y-87225663D01*
X193552654Y-87219007D01*
X193569636Y-87199897D01*
X193596847Y-87171030D01*
X193631950Y-87134876D01*
X193672607Y-87093907D01*
X193797214Y-86969600D01*
X193936767Y-86969600D01*
X193971096Y-86969460D01*
X194020525Y-86968382D01*
X194053109Y-86966065D01*
X194071092Y-86962305D01*
X194076718Y-86956900D01*
X194076995Y-86955196D01*
X194081982Y-86958629D01*
X194091131Y-86976420D01*
X194103691Y-86998497D01*
X194133479Y-87022703D01*
X194174713Y-87030236D01*
X194185757Y-87029435D01*
X194220392Y-87016057D01*
X194243568Y-86989566D01*
X194252646Y-86954303D01*
X194244987Y-86914608D01*
X194228813Y-86889345D01*
X194199197Y-86869726D01*
X194164676Y-86865369D01*
X194130479Y-86876661D01*
X194101835Y-86903991D01*
X194081400Y-86934040D01*
X193776600Y-86928540D01*
X193624328Y-87081150D01*
X193614857Y-87090636D01*
X193565791Y-87139445D01*
X193528291Y-87175790D01*
X193500134Y-87201476D01*
X193479097Y-87218309D01*
X193462956Y-87228097D01*
X193449486Y-87232645D01*
X193436465Y-87233760D01*
X193435241Y-87233767D01*
X193423494Y-87234996D01*
X193410903Y-87239444D01*
X193395556Y-87248723D01*
X193375538Y-87264443D01*
X193348936Y-87288216D01*
X193313835Y-87321652D01*
X193268322Y-87366361D01*
X193210482Y-87423955D01*
X193178919Y-87455303D01*
X193123665Y-87509116D01*
X193078219Y-87551852D01*
X193043612Y-87582581D01*
X193020871Y-87600372D01*
X193011027Y-87604295D01*
X193008635Y-87601601D01*
X192993450Y-87583075D01*
X192971268Y-87554806D01*
X192944871Y-87520479D01*
X192917038Y-87483778D01*
X192890550Y-87448387D01*
X192868187Y-87417990D01*
X192852731Y-87396270D01*
X192846960Y-87386913D01*
X192849043Y-87384024D01*
X192863080Y-87368598D01*
X192888888Y-87341563D01*
X192924753Y-87304676D01*
X192968963Y-87259695D01*
X193019803Y-87208377D01*
X193075560Y-87152480D01*
X193304160Y-86924049D01*
X193304160Y-86628876D01*
X193410652Y-86522747D01*
X193423903Y-86509557D01*
X193461995Y-86472140D01*
X193489673Y-86446500D01*
X193509906Y-86430523D01*
X193525664Y-86422091D01*
X193539916Y-86419088D01*
X193555630Y-86419396D01*
X193589060Y-86416067D01*
X193619083Y-86397138D01*
X193636729Y-86363498D01*
X193640610Y-86316819D01*
X193638389Y-86304910D01*
X193621779Y-86280033D01*
X193593862Y-86264150D01*
X193560170Y-86258555D01*
X193526232Y-86264539D01*
X193497580Y-86283396D01*
X193488010Y-86294783D01*
X193478501Y-86317307D01*
X193479436Y-86348198D01*
X193480748Y-86359382D01*
X193480518Y-86373196D01*
X193475970Y-86386901D01*
X193465081Y-86403379D01*
X193445829Y-86425515D01*
X193416193Y-86456190D01*
X193374148Y-86498289D01*
X193263520Y-86608573D01*
X193263520Y-86913910D01*
X193062768Y-87114475D01*
X193055884Y-87121347D01*
X193003956Y-87172904D01*
X192956838Y-87219191D01*
X192916431Y-87258379D01*
X192884636Y-87288637D01*
X192863355Y-87308134D01*
X192854488Y-87315039D01*
X192854309Y-87314985D01*
X192851986Y-87303978D01*
X192849969Y-87275996D01*
X192848378Y-87234152D01*
X192847335Y-87181563D01*
X192846960Y-87121344D01*
X192846961Y-86927648D01*
X192877441Y-86902000D01*
X192893373Y-86885046D01*
X192908134Y-86851191D01*
X192906880Y-86816690D01*
X192891328Y-86786235D01*
X192863190Y-86764521D01*
X192824183Y-86756240D01*
X192801916Y-86759260D01*
X192771562Y-86776262D01*
X192752178Y-86803970D01*
X192745385Y-86837468D01*
X192752803Y-86871843D01*
X192776052Y-86902179D01*
X192806744Y-86928004D01*
X192803992Y-87130507D01*
X192801240Y-87333009D01*
X192329200Y-86719142D01*
X192320821Y-86708247D01*
X192245399Y-86610274D01*
X192173377Y-86516897D01*
X192105754Y-86429395D01*
X192043523Y-86349050D01*
X191987683Y-86277144D01*
X191939229Y-86214956D01*
X191899156Y-86163768D01*
X191868462Y-86124861D01*
X191848141Y-86099516D01*
X191839192Y-86089014D01*
X191831006Y-86081971D01*
X191821082Y-86078688D01*
X191814273Y-86090867D01*
X191814164Y-86091272D01*
X191815918Y-86106432D01*
X191823120Y-86139760D01*
X191835452Y-86190047D01*
X191852594Y-86256086D01*
X191874228Y-86336668D01*
X191900033Y-86430584D01*
X191929692Y-86536628D01*
X191962885Y-86653590D01*
X191981644Y-86719289D01*
X192009766Y-86817877D01*
X192035957Y-86909806D01*
X192059692Y-86993236D01*
X192080451Y-87066328D01*
X192097710Y-87127242D01*
X192110948Y-87174138D01*
X192119643Y-87205177D01*
X192123271Y-87218520D01*
X192121734Y-87219618D01*
X192108891Y-87211031D01*
X192084808Y-87190702D01*
X192051401Y-87160344D01*
X192010588Y-87121671D01*
X191964288Y-87076399D01*
X191800480Y-86913958D01*
X191800480Y-86608573D01*
X191689853Y-86498289D01*
X191666524Y-86474985D01*
X191631046Y-86438945D01*
X191606983Y-86412847D01*
X191592299Y-86393854D01*
X191584955Y-86379129D01*
X191582915Y-86365838D01*
X191584141Y-86351142D01*
X191584363Y-86349358D01*
X191580803Y-86311850D01*
X191563524Y-86282907D01*
X191536953Y-86263724D01*
X191505519Y-86255497D01*
X191473650Y-86259423D01*
X191445775Y-86276697D01*
X191426321Y-86308515D01*
X191422969Y-86320019D01*
X191422179Y-86359887D01*
X191437949Y-86392014D01*
X191467629Y-86412844D01*
X191508569Y-86418823D01*
X191512379Y-86418634D01*
X191527559Y-86419199D01*
X191542107Y-86423638D01*
X191558992Y-86434082D01*
X191581182Y-86452662D01*
X191611645Y-86481506D01*
X191653349Y-86522747D01*
X191759840Y-86628876D01*
X191759318Y-86934040D01*
X191956345Y-87127080D01*
X191980667Y-87150929D01*
X192034579Y-87204083D01*
X192076308Y-87245974D01*
X192107615Y-87278659D01*
X192130261Y-87304195D01*
X192146009Y-87324640D01*
X192156619Y-87342051D01*
X192163853Y-87358485D01*
X192169473Y-87376000D01*
X192180774Y-87415644D01*
X192195168Y-87469421D01*
X192205162Y-87514471D01*
X192211551Y-87556603D01*
X192215131Y-87601625D01*
X192216696Y-87655346D01*
X192217040Y-87723574D01*
X192217040Y-87894160D01*
X192074800Y-87894160D01*
X192074800Y-87646370D01*
X191869387Y-87440065D01*
X191848216Y-87418818D01*
X191792127Y-87362814D01*
X191747851Y-87319295D01*
X191713591Y-87286715D01*
X191687550Y-87263526D01*
X191667929Y-87248183D01*
X191652931Y-87239139D01*
X191640758Y-87234847D01*
X191629614Y-87233760D01*
X191629086Y-87233758D01*
X191616257Y-87232308D01*
X191602219Y-87226969D01*
X191584776Y-87215997D01*
X191561729Y-87197649D01*
X191530884Y-87170182D01*
X191490043Y-87131853D01*
X191437010Y-87080920D01*
X191278767Y-86928080D01*
X191126200Y-86929526D01*
X191115219Y-86929627D01*
X191059320Y-86929903D01*
X191020069Y-86929348D01*
X190994318Y-86927612D01*
X190978914Y-86924348D01*
X190970710Y-86919204D01*
X190966554Y-86911833D01*
X190954777Y-86891737D01*
X190927068Y-86871698D01*
X190892703Y-86864676D01*
X190857682Y-86871487D01*
X190828010Y-86892950D01*
X190810452Y-86919856D01*
X190806369Y-86951699D01*
X189992000Y-86951699D01*
X189992000Y-85598000D01*
X195072000Y-85598000D01*
X195072000Y-90678000D01*
X189992000Y-90678000D01*
G37*
G36*
X193850022Y-89260899D02*
G01*
X193860492Y-89281468D01*
X193860483Y-89304221D01*
X193846744Y-89323610D01*
X193834644Y-89331542D01*
X193822320Y-89336880D01*
X193814946Y-89334231D01*
X193797897Y-89323610D01*
X193793639Y-89319884D01*
X193783644Y-89297459D01*
X193787544Y-89271812D01*
X193804540Y-89251609D01*
X193810646Y-89248499D01*
X193832323Y-89248061D01*
X193850022Y-89260899D01*
G37*
G36*
X192940515Y-88379378D02*
G01*
X192824407Y-88379946D01*
X192707783Y-88380712D01*
X192609193Y-88381624D01*
X192527409Y-88382711D01*
X192461203Y-88384005D01*
X192409348Y-88385535D01*
X192370618Y-88387331D01*
X192343784Y-88389423D01*
X192327620Y-88391842D01*
X192320898Y-88394618D01*
X192320724Y-88395203D01*
X192323065Y-88409682D01*
X192330919Y-88441961D01*
X192343877Y-88490656D01*
X192361531Y-88554380D01*
X192383471Y-88631749D01*
X192409288Y-88721377D01*
X192438574Y-88821879D01*
X192470920Y-88931870D01*
X192505917Y-89049963D01*
X192543157Y-89174773D01*
X192582230Y-89304916D01*
X192622729Y-89439005D01*
X192664243Y-89575656D01*
X192706364Y-89713482D01*
X192748684Y-89851098D01*
X192790793Y-89987120D01*
X192794786Y-90003156D01*
X192793497Y-90007440D01*
X192790210Y-90002573D01*
X192776986Y-89981881D01*
X192754442Y-89946179D01*
X192723381Y-89896755D01*
X192684606Y-89834900D01*
X192638921Y-89761903D01*
X192587129Y-89679055D01*
X192530034Y-89587644D01*
X192468437Y-89488962D01*
X192403144Y-89384298D01*
X192334956Y-89274943D01*
X192264678Y-89162184D01*
X192193112Y-89047314D01*
X192121063Y-88931622D01*
X192049332Y-88816397D01*
X191978723Y-88702929D01*
X191910041Y-88592509D01*
X191844087Y-88486426D01*
X191781665Y-88385971D01*
X191724982Y-88294692D01*
X192301692Y-88294692D01*
X192311802Y-88305051D01*
X192333562Y-88310720D01*
X192337877Y-88310631D01*
X192354883Y-88304914D01*
X192359280Y-88286407D01*
X192358766Y-88284136D01*
X192401658Y-88284136D01*
X192402169Y-88286407D01*
X192402603Y-88288338D01*
X192407472Y-88291757D01*
X192418088Y-88294474D01*
X192436272Y-88296569D01*
X192463845Y-88298122D01*
X192502631Y-88299213D01*
X192554449Y-88299922D01*
X192621122Y-88300330D01*
X192704472Y-88300515D01*
X192806320Y-88300560D01*
X192837445Y-88300557D01*
X192933816Y-88300480D01*
X193012211Y-88300239D01*
X193074449Y-88299754D01*
X193122354Y-88298943D01*
X193157747Y-88297729D01*
X193182449Y-88296029D01*
X193198282Y-88293764D01*
X193207069Y-88290854D01*
X193210629Y-88287219D01*
X193210786Y-88282780D01*
X193210668Y-88282223D01*
X193208418Y-88277841D01*
X193202666Y-88274270D01*
X193191542Y-88271426D01*
X193173178Y-88269228D01*
X193145706Y-88267594D01*
X193107257Y-88266441D01*
X193055963Y-88265687D01*
X192989954Y-88265250D01*
X192907363Y-88265049D01*
X192806320Y-88265000D01*
X192793764Y-88265000D01*
X192694927Y-88265062D01*
X192614328Y-88265287D01*
X192550098Y-88265756D01*
X192500368Y-88266551D01*
X192463270Y-88267755D01*
X192436935Y-88269450D01*
X192419495Y-88271718D01*
X192409080Y-88274640D01*
X192403823Y-88278300D01*
X192401855Y-88282780D01*
X192401658Y-88284136D01*
X192358766Y-88284136D01*
X192355507Y-88269737D01*
X192342237Y-88255553D01*
X192337315Y-88254256D01*
X192317283Y-88258996D01*
X192303015Y-88274785D01*
X192301692Y-88294692D01*
X191724982Y-88294692D01*
X191723579Y-88292432D01*
X191670631Y-88207101D01*
X191623625Y-88131266D01*
X191583365Y-88066218D01*
X191550653Y-88013247D01*
X191526293Y-87973643D01*
X191511087Y-87948695D01*
X191505840Y-87939694D01*
X191508587Y-87939138D01*
X191528218Y-87938132D01*
X191564966Y-87937214D01*
X191616732Y-87936409D01*
X191681415Y-87935741D01*
X191756914Y-87935234D01*
X191841129Y-87934912D01*
X191931961Y-87934800D01*
X191979530Y-87934750D01*
X192067544Y-87934387D01*
X192148035Y-87933704D01*
X192218869Y-87932740D01*
X192277913Y-87931535D01*
X192323036Y-87930127D01*
X192352105Y-87928557D01*
X192362986Y-87926863D01*
X192361761Y-87919498D01*
X192355472Y-87893872D01*
X192344280Y-87851298D01*
X192328580Y-87793196D01*
X192308766Y-87720987D01*
X192285232Y-87636091D01*
X192258371Y-87539927D01*
X192228578Y-87433917D01*
X192196247Y-87319480D01*
X192161772Y-87198038D01*
X192125546Y-87071009D01*
X192095661Y-86966336D01*
X192060814Y-86843988D01*
X192028005Y-86728478D01*
X191997630Y-86621218D01*
X191970087Y-86523617D01*
X191945770Y-86437086D01*
X191925076Y-86363035D01*
X191908401Y-86302874D01*
X191896142Y-86258014D01*
X191888695Y-86229866D01*
X191886455Y-86219839D01*
X191887902Y-86221307D01*
X191899750Y-86235832D01*
X191922923Y-86265127D01*
X191956702Y-86308264D01*
X192000370Y-86364315D01*
X192053208Y-86432350D01*
X192114496Y-86511442D01*
X192183517Y-86600662D01*
X192259553Y-86699081D01*
X192341883Y-86805771D01*
X192429791Y-86919804D01*
X192522557Y-87040251D01*
X192619463Y-87166183D01*
X192719790Y-87296672D01*
X193477645Y-88282780D01*
X193549872Y-88376760D01*
X192940515Y-88379378D01*
G37*
G36*
X193758856Y-89901317D02*
G01*
X193774468Y-89917430D01*
X193779997Y-89939544D01*
X193771115Y-89962208D01*
X193762515Y-89969632D01*
X193741040Y-89976960D01*
X193735397Y-89976601D01*
X193713656Y-89965926D01*
X193703318Y-89945408D01*
X193705986Y-89921812D01*
X193723260Y-89901900D01*
X193737486Y-89896657D01*
X193758856Y-89901317D01*
G37*
%TD*%
M02*
