%TF.GenerationSoftware,KiCad,Pcbnew,(6.0.2-0)*%
%TF.CreationDate,2022-09-10T16:34:37-06:00*%
%TF.ProjectId,Sensor Data Logger,53656e73-6f72-4204-9461-7461204c6f67,rev?*%
%TF.SameCoordinates,Original*%
%TF.FileFunction,Soldermask,Top*%
%TF.FilePolarity,Negative*%
%FSLAX46Y46*%
G04 Gerber Fmt 4.6, Leading zero omitted, Abs format (unit mm)*
G04 Created by KiCad (PCBNEW (6.0.2-0)) date 2022-09-10 16:34:37*
%MOMM*%
%LPD*%
G01*
G04 APERTURE LIST*
G04 Aperture macros list*
%AMRoundRect*
0 Rectangle with rounded corners*
0 $1 Rounding radius*
0 $2 $3 $4 $5 $6 $7 $8 $9 X,Y pos of 4 corners*
0 Add a 4 corners polygon primitive as box body*
4,1,4,$2,$3,$4,$5,$6,$7,$8,$9,$2,$3,0*
0 Add four circle primitives for the rounded corners*
1,1,$1+$1,$2,$3*
1,1,$1+$1,$4,$5*
1,1,$1+$1,$6,$7*
1,1,$1+$1,$8,$9*
0 Add four rect primitives between the rounded corners*
20,1,$1+$1,$2,$3,$4,$5,0*
20,1,$1+$1,$4,$5,$6,$7,0*
20,1,$1+$1,$6,$7,$8,$9,0*
20,1,$1+$1,$8,$9,$2,$3,0*%
G04 Aperture macros list end*
%ADD10RoundRect,0.200000X0.275000X-0.200000X0.275000X0.200000X-0.275000X0.200000X-0.275000X-0.200000X0*%
%ADD11R,0.500000X0.600000*%
%ADD12RoundRect,0.225000X0.250000X-0.225000X0.250000X0.225000X-0.250000X0.225000X-0.250000X-0.225000X0*%
%ADD13RoundRect,0.135000X0.185000X-0.135000X0.185000X0.135000X-0.185000X0.135000X-0.185000X-0.135000X0*%
%ADD14R,2.000000X1.500000*%
%ADD15R,2.000000X3.800000*%
%ADD16RoundRect,0.100000X-0.100000X0.130000X-0.100000X-0.130000X0.100000X-0.130000X0.100000X0.130000X0*%
%ADD17R,0.600000X0.500000*%
%ADD18RoundRect,0.100000X0.130000X0.100000X-0.130000X0.100000X-0.130000X-0.100000X0.130000X-0.100000X0*%
%ADD19C,0.900000*%
%ADD20R,0.800000X1.000000*%
%ADD21R,1.500000X0.700000*%
%ADD22RoundRect,0.243750X-0.456250X0.243750X-0.456250X-0.243750X0.456250X-0.243750X0.456250X0.243750X0*%
%ADD23R,1.000000X1.000000*%
%ADD24R,1.000000X3.150000*%
%ADD25R,0.900000X1.700000*%
%ADD26RoundRect,0.135000X-0.185000X0.135000X-0.185000X-0.135000X0.185000X-0.135000X0.185000X0.135000X0*%
%ADD27RoundRect,0.140000X-0.170000X0.140000X-0.170000X-0.140000X0.170000X-0.140000X0.170000X0.140000X0*%
%ADD28C,0.650000*%
%ADD29C,1.070000*%
%ADD30R,0.700000X0.350000*%
%ADD31C,1.815000*%
%ADD32RoundRect,0.140000X0.140000X0.170000X-0.140000X0.170000X-0.140000X-0.170000X0.140000X-0.170000X0*%
%ADD33RoundRect,0.140000X0.170000X-0.140000X0.170000X0.140000X-0.170000X0.140000X-0.170000X-0.140000X0*%
%ADD34R,1.300000X1.400000*%
%ADD35R,1.000000X0.950000*%
%ADD36R,1.400000X1.900000*%
%ADD37R,0.800000X1.500000*%
%ADD38RoundRect,0.135000X-0.135000X-0.185000X0.135000X-0.185000X0.135000X0.185000X-0.135000X0.185000X0*%
%ADD39R,5.080000X1.270000*%
%ADD40R,3.960000X3.960000*%
%ADD41RoundRect,0.225000X-0.225000X-0.250000X0.225000X-0.250000X0.225000X0.250000X-0.225000X0.250000X0*%
%ADD42R,1.700000X0.900000*%
%ADD43R,2.000000X0.900000*%
%ADD44R,0.900000X2.000000*%
%ADD45R,5.000000X5.000000*%
%ADD46R,1.050000X0.400000*%
%ADD47RoundRect,0.100000X-0.130000X-0.100000X0.130000X-0.100000X0.130000X0.100000X-0.130000X0.100000X0*%
%ADD48RoundRect,0.250000X-0.262500X-0.450000X0.262500X-0.450000X0.262500X0.450000X-0.262500X0.450000X0*%
%ADD49R,1.500000X2.000000*%
%ADD50R,3.800000X2.000000*%
%ADD51RoundRect,0.243750X0.456250X-0.243750X0.456250X0.243750X-0.456250X0.243750X-0.456250X-0.243750X0*%
%ADD52RoundRect,0.200000X-0.200000X-0.275000X0.200000X-0.275000X0.200000X0.275000X-0.200000X0.275000X0*%
%ADD53R,0.800000X0.300000*%
%ADD54R,0.300000X0.800000*%
%ADD55R,1.760000X1.760000*%
%ADD56RoundRect,0.250000X0.450000X-0.262500X0.450000X0.262500X-0.450000X0.262500X-0.450000X-0.262500X0*%
%ADD57RoundRect,0.250000X-0.650000X0.325000X-0.650000X-0.325000X0.650000X-0.325000X0.650000X0.325000X0*%
%ADD58R,2.510000X1.000000*%
%ADD59RoundRect,0.218750X0.218750X0.256250X-0.218750X0.256250X-0.218750X-0.256250X0.218750X-0.256250X0*%
%ADD60R,3.200000X1.750000*%
%ADD61RoundRect,0.150000X-0.875000X-0.150000X0.875000X-0.150000X0.875000X0.150000X-0.875000X0.150000X0*%
%ADD62RoundRect,0.140000X-0.140000X-0.170000X0.140000X-0.170000X0.140000X0.170000X-0.140000X0.170000X0*%
%ADD63C,3.200000*%
%ADD64R,3.500000X3.500000*%
%ADD65C,3.500000*%
G04 APERTURE END LIST*
D10*
%TO.C,R18*%
X134620000Y-83375000D03*
X134620000Y-81725000D03*
%TD*%
D11*
%TO.C,D3*%
X183134000Y-65778000D03*
X183134000Y-64778000D03*
%TD*%
D12*
%TO.C,C16*%
X134620000Y-80023000D03*
X134620000Y-78473000D03*
%TD*%
D13*
%TO.C,R1*%
X137922000Y-83820000D03*
X137922000Y-82800000D03*
%TD*%
D14*
%TO.C,U1*%
X147168000Y-84342000D03*
D15*
X140868000Y-82042000D03*
D14*
X147168000Y-82042000D03*
X147168000Y-79742000D03*
%TD*%
D16*
%TO.C,R6*%
X183134000Y-63180000D03*
X183134000Y-63820000D03*
%TD*%
D17*
%TO.C,D5*%
X163522000Y-66228000D03*
X164522000Y-66228000D03*
%TD*%
D18*
%TO.C,C6*%
X158894000Y-85344000D03*
X158254000Y-85344000D03*
%TD*%
D19*
%TO.C,SW4*%
X121590000Y-76938000D03*
D20*
X120490000Y-79088000D03*
X122700000Y-71788000D03*
D19*
X121590000Y-73938000D03*
D20*
X122700000Y-79088000D03*
X120490000Y-71788000D03*
D21*
X123350000Y-73188000D03*
X123350000Y-76188000D03*
X123350000Y-77688000D03*
%TD*%
D22*
%TO.C,D10*%
X130048000Y-57990500D03*
X130048000Y-59865500D03*
%TD*%
D13*
%TO.C,R21*%
X127254000Y-62486000D03*
X127254000Y-61466000D03*
%TD*%
%TO.C,R11*%
X132330000Y-92458000D03*
X132330000Y-91438000D03*
%TD*%
D23*
%TO.C,TP1*%
X157480000Y-95758000D03*
%TD*%
D24*
%TO.C,J1*%
X185420000Y-64486000D03*
X185420000Y-59436000D03*
X187960000Y-64486000D03*
X187960000Y-59436000D03*
X190500000Y-64486000D03*
X190500000Y-59436000D03*
X193040000Y-64486000D03*
X193040000Y-59436000D03*
X195580000Y-64486000D03*
X195580000Y-59436000D03*
X198120000Y-64486000D03*
X198120000Y-59436000D03*
%TD*%
D25*
%TO.C,SW2*%
X156929000Y-88591000D03*
X160329000Y-88591000D03*
%TD*%
D11*
%TO.C,D4*%
X183134000Y-59874000D03*
X183134000Y-58874000D03*
%TD*%
D26*
%TO.C,R12*%
X133346000Y-92964000D03*
X133346000Y-93984000D03*
%TD*%
D27*
%TO.C,C9*%
X164084000Y-61214000D03*
X164084000Y-62174000D03*
%TD*%
D13*
%TO.C,R4*%
X179324000Y-83314000D03*
X179324000Y-82294000D03*
%TD*%
D26*
%TO.C,R13*%
X135681500Y-92962000D03*
X135681500Y-93982000D03*
%TD*%
D28*
%TO.C,J6*%
X126702000Y-84413000D03*
D29*
X126702000Y-91863000D03*
D30*
X128512000Y-85388000D03*
X128512000Y-85888000D03*
X128512000Y-86388000D03*
X128512000Y-86888000D03*
X128512000Y-87388000D03*
X128512000Y-87888000D03*
X128512000Y-88388000D03*
X128512000Y-88888000D03*
X128512000Y-89388000D03*
X128512000Y-89888000D03*
X128512000Y-90388000D03*
X128512000Y-90888000D03*
D28*
X127402000Y-91188000D03*
X126702000Y-90538000D03*
X126702000Y-89738000D03*
X127402000Y-89338000D03*
X126702000Y-88938000D03*
X127402000Y-88538000D03*
X127402000Y-87738000D03*
X126702000Y-87338000D03*
X127402000Y-86938000D03*
X126702000Y-86538000D03*
X126702000Y-85738000D03*
X127402000Y-85088000D03*
D31*
X128202000Y-83638000D03*
X128202000Y-92638000D03*
X122602000Y-92638000D03*
X122602000Y-83638000D03*
%TD*%
D32*
%TO.C,C8*%
X176276000Y-82296000D03*
X175316000Y-82296000D03*
%TD*%
D23*
%TO.C,TP2*%
X159512000Y-95758000D03*
%TD*%
D33*
%TO.C,C5*%
X135636000Y-58900000D03*
X135636000Y-57940000D03*
%TD*%
D16*
%TO.C,R7*%
X165608000Y-65654000D03*
X165608000Y-66294000D03*
%TD*%
D13*
%TO.C,R23*%
X132842000Y-62486000D03*
X132842000Y-61466000D03*
%TD*%
D34*
%TO.C,J5*%
X179219000Y-72223000D03*
D35*
X177829000Y-72449000D03*
D34*
X173519000Y-72223000D03*
D36*
X180819000Y-59074000D03*
X167669000Y-58074000D03*
D37*
X172329000Y-61363000D03*
X173429000Y-61763000D03*
X174529000Y-61363000D03*
X175629000Y-61163000D03*
X176729000Y-61363000D03*
X177829000Y-61163000D03*
X178929000Y-61363000D03*
X180029000Y-61363000D03*
%TD*%
D38*
%TO.C,R8*%
X164336000Y-60198000D03*
X165356000Y-60198000D03*
%TD*%
D26*
%TO.C,R15*%
X136902000Y-92962000D03*
X136902000Y-93982000D03*
%TD*%
D39*
%TO.C,BT1*%
X192456000Y-73677500D03*
X192456000Y-95647500D03*
D40*
X192456000Y-84662500D03*
%TD*%
D41*
%TO.C,C11*%
X130539000Y-90170000D03*
X132089000Y-90170000D03*
%TD*%
D42*
%TO.C,SW3*%
X179070000Y-91616000D03*
X179070000Y-88216000D03*
%TD*%
D43*
%TO.C,U2*%
X138566000Y-57701000D03*
X138566000Y-58971000D03*
X138566000Y-60241000D03*
X138566000Y-61511000D03*
X138566000Y-62781000D03*
X138566000Y-64051000D03*
X138566000Y-65321000D03*
X138566000Y-66591000D03*
X138566000Y-67861000D03*
X138566000Y-69131000D03*
X138566000Y-70401000D03*
X138566000Y-71671000D03*
X138566000Y-72941000D03*
X138566000Y-74211000D03*
D44*
X141351000Y-75211000D03*
X142621000Y-75211000D03*
X143891000Y-75211000D03*
X145161000Y-75211000D03*
X146431000Y-75211000D03*
X147701000Y-75211000D03*
X148971000Y-75211000D03*
X150241000Y-75211000D03*
X151511000Y-75211000D03*
X152781000Y-75211000D03*
D43*
X155566000Y-74211000D03*
X155566000Y-72941000D03*
X155566000Y-71671000D03*
X155566000Y-70401000D03*
X155566000Y-69131000D03*
X155566000Y-67861000D03*
X155566000Y-66591000D03*
X155566000Y-65321000D03*
X155566000Y-64051000D03*
X155566000Y-62781000D03*
X155566000Y-61511000D03*
X155566000Y-60241000D03*
X155566000Y-58971000D03*
X155566000Y-57701000D03*
D45*
X146066000Y-65201000D03*
%TD*%
D27*
%TO.C,C2*%
X149606000Y-82070000D03*
X149606000Y-83030000D03*
%TD*%
D13*
%TO.C,R3*%
X124460000Y-62566500D03*
X124460000Y-61546500D03*
%TD*%
D46*
%TO.C,Q2*%
X130622000Y-81900000D03*
X130622000Y-82550000D03*
X130622000Y-83200000D03*
X132522000Y-83200000D03*
X132522000Y-82550000D03*
X132522000Y-81900000D03*
%TD*%
D33*
%TO.C,C4*%
X136652000Y-58900000D03*
X136652000Y-57940000D03*
%TD*%
D47*
%TO.C,C7*%
X158267000Y-86305000D03*
X158907000Y-86305000D03*
%TD*%
D17*
%TO.C,D6*%
X163447000Y-64196000D03*
X164447000Y-64196000D03*
%TD*%
D48*
%TO.C,R20*%
X130659500Y-79756000D03*
X132484500Y-79756000D03*
%TD*%
D22*
%TO.C,D9*%
X127254000Y-57990500D03*
X127254000Y-59865500D03*
%TD*%
D49*
%TO.C,Q1*%
X151153750Y-88812000D03*
X148853750Y-88812000D03*
D50*
X148853750Y-95112000D03*
D49*
X146553750Y-88812000D03*
%TD*%
D51*
%TO.C,D7*%
X130552000Y-93726000D03*
X130552000Y-91851000D03*
%TD*%
D52*
%TO.C,R16*%
X142698750Y-92470000D03*
X144348750Y-92470000D03*
%TD*%
D53*
%TO.C,IC1*%
X133540000Y-89483000D03*
X133540000Y-89983000D03*
X133540000Y-90483000D03*
X133540000Y-90983000D03*
D54*
X134290000Y-91733000D03*
X134790000Y-91733000D03*
X135290000Y-91733000D03*
X135790000Y-91733000D03*
D53*
X136540000Y-90983000D03*
X136540000Y-90483000D03*
X136540000Y-89983000D03*
X136540000Y-89483000D03*
D54*
X135790000Y-88733000D03*
X135290000Y-88733000D03*
X134790000Y-88733000D03*
X134290000Y-88733000D03*
D55*
X135040000Y-90233000D03*
%TD*%
D22*
%TO.C,D2*%
X124460000Y-58069000D03*
X124460000Y-59944000D03*
%TD*%
D56*
%TO.C,R19*%
X128524000Y-80922500D03*
X128524000Y-79097500D03*
%TD*%
D22*
%TO.C,D11*%
X132842000Y-57990500D03*
X132842000Y-59865500D03*
%TD*%
D27*
%TO.C,C10*%
X165354000Y-61214000D03*
X165354000Y-62174000D03*
%TD*%
D13*
%TO.C,R22*%
X130048000Y-62486000D03*
X130048000Y-61466000D03*
%TD*%
D57*
%TO.C,C15*%
X139188000Y-91540000D03*
X139188000Y-94490000D03*
%TD*%
D25*
%TO.C,SW1*%
X160274000Y-83058000D03*
X156874000Y-83058000D03*
%TD*%
D13*
%TO.C,R10*%
X183134000Y-62232000D03*
X183134000Y-61212000D03*
%TD*%
D26*
%TO.C,R14*%
X134616000Y-92962000D03*
X134616000Y-93982000D03*
%TD*%
%TO.C,R5*%
X178054000Y-82294000D03*
X178054000Y-83314000D03*
%TD*%
D58*
%TO.C,J4*%
X162060000Y-62992000D03*
X158750000Y-60452000D03*
X162060000Y-57912000D03*
%TD*%
D59*
%TO.C,D8*%
X144311250Y-89662000D03*
X142736250Y-89662000D03*
%TD*%
D32*
%TO.C,C13*%
X134334000Y-87376000D03*
X133374000Y-87376000D03*
%TD*%
D60*
%TO.C,L1*%
X139188000Y-87210000D03*
X139188000Y-89410000D03*
%TD*%
D22*
%TO.C,D1*%
X137922000Y-79580500D03*
X137922000Y-81455500D03*
%TD*%
D23*
%TO.C,TP3*%
X161544000Y-95758000D03*
%TD*%
D52*
%TO.C,R17*%
X142698750Y-94234000D03*
X144348750Y-94234000D03*
%TD*%
D61*
%TO.C,U3*%
X166038000Y-83693000D03*
X166038000Y-84963000D03*
X166038000Y-86233000D03*
X166038000Y-87503000D03*
X166038000Y-88773000D03*
X166038000Y-90043000D03*
X166038000Y-91313000D03*
X166038000Y-92583000D03*
X175338000Y-92583000D03*
X175338000Y-91313000D03*
X175338000Y-90043000D03*
X175338000Y-88773000D03*
X175338000Y-87503000D03*
X175338000Y-86233000D03*
X175338000Y-84963000D03*
X175338000Y-83693000D03*
%TD*%
D27*
%TO.C,C3*%
X136652000Y-59746000D03*
X136652000Y-60706000D03*
%TD*%
D12*
%TO.C,C1*%
X149606000Y-86373000D03*
X149606000Y-84823000D03*
%TD*%
D27*
%TO.C,C12*%
X132330000Y-87912000D03*
X132330000Y-88872000D03*
%TD*%
D62*
%TO.C,C14*%
X135434000Y-87376000D03*
X136394000Y-87376000D03*
%TD*%
D16*
%TO.C,R9*%
X165608000Y-63622000D03*
X165608000Y-64262000D03*
%TD*%
D13*
%TO.C,R2*%
X135636000Y-60708000D03*
X135636000Y-59688000D03*
%TD*%
D63*
%TO.C,BT2*%
X133427000Y-68326000D03*
X189037000Y-68326000D03*
D64*
X124782000Y-68326000D03*
D65*
X196782000Y-68326000D03*
%TD*%
M02*
