M48
; DRILL file {KiCad (6.0.2-0)} date Saturday, September 10, 2022 at 04:34:37 PM
; FORMAT={-:-/ absolute / inch / decimal}
; #@! TF.CreationDate,2022-09-10T16:34:37-06:00
; #@! TF.GenerationSoftware,Kicad,Pcbnew,(6.0.2-0)
; #@! TF.FileFunction,Plated,1,2,PTH
FMAT,2
INCH
; #@! TA.AperFunction,Plated,PTH,ViaDrill
T1C0.0157
; #@! TA.AperFunction,Plated,PTH,ComponentDrill
T2C0.0157
; #@! TA.AperFunction,Plated,PTH,ComponentDrill
T3C0.0476
; #@! TA.AperFunction,Plated,PTH,ComponentDrill
T4C0.0787
%
G90
G05
T1
X4.9Y-2.4632
X4.97Y-3.25
X5.01Y-2.4632
X5.12Y-2.4601
X5.1398Y-3.6162
X5.14Y-3.55
X5.2105Y-3.4605
X5.22Y-3.14
X5.23Y-2.4601
X5.25Y-3.7
X5.2509Y-3.44
X5.2998Y-3.7001
X5.3Y-3.15
X5.3005Y-3.0895
X5.32Y-3.56
X5.35Y-3.25
X5.37Y-3.0
X5.38Y-2.4
X5.45Y-2.27
X5.45Y-2.82
X5.4554Y-2.3217
X5.4554Y-2.7217
X5.4554Y-2.7717
X5.46Y-2.52
X5.46Y-2.62
X5.46Y-2.67
X5.46Y-2.87
X5.48Y-3.52
X5.48Y-3.71
X5.546Y-3.23
X5.56Y-2.97
X5.63Y-2.76
X5.68Y-3.64
X5.73Y-2.73
X5.79Y-3.32
X5.794Y-3.23
X5.8Y-2.79
X5.81Y-2.49
X6.05Y-2.5
X6.12Y-2.42
X6.1246Y-2.4717
X6.13Y-2.27
X6.26Y-2.38
X6.28Y-3.77
X6.32Y-2.59
X6.37Y-2.28
X6.37Y-2.5844
X6.37Y-2.73
X6.38Y-2.3801
X6.38Y-2.48
X6.43Y-2.73
X6.4622Y-2.4478
X6.48Y-2.53
X6.5207Y-2.5773
X6.5324Y-2.4924
X6.5369Y-3.345
X6.5369Y-3.495
X6.54Y-2.64
X6.61Y-2.74
X6.75Y-3.08
X6.9Y-3.24
X6.9Y-3.5
X6.91Y-2.27
X6.91Y-3.44
X6.92Y-2.41
X6.94Y-3.24
X6.9578Y-2.4159
X7.0Y-2.41
X7.01Y-3.2399
X7.0444Y-2.4159
X7.05Y-3.61
X7.1189Y-2.3485
X7.14Y-2.56
X7.21Y-2.32
X7.21Y-2.36
X7.21Y-2.59
X7.3381Y-2.6433
X7.4Y-2.34
X7.5Y-2.5388
X7.58Y-3.34
X7.7Y-2.35
X7.7Y-2.53
X7.8Y-2.35
X7.8Y-2.5388
T2
X4.9883Y-3.3755
X4.9883Y-3.407
X4.9883Y-3.4385
X4.9883Y-3.5015
X4.9883Y-3.533
X4.9883Y-3.5645
X5.0158Y-3.3499
X5.0158Y-3.4228
X5.0158Y-3.4543
X5.0158Y-3.4857
X5.0158Y-3.5172
X5.0158Y-3.5901
T3
X4.8269Y-3.2928
X4.8269Y-3.6472
X5.0473Y-3.2928
X5.0473Y-3.6472
T4
X4.9127Y-2.69
X7.7473Y-2.69
T0
M30
